<svg viewBox="0 0 872 872" xmlns="http://www.w3.org/2000/svg">
  <path d="M83.81,649.59h9.43l25.48,58.33H108l-5.88-14H74.71l-6,14H58.32Zm14.56,35.33-10-23.17-9.93,23.17Z"/>
  <path d="M137,650h9.43l31,40V650h10v57.92h-8.52L147,666.71v41.21H137Z"/>
  <path d="M231.15,649.59h9.43l25.49,58.33H255.31l-5.87-14H222.05l-6,14H205.67Zm14.56,35.33-10-23.17-9.93,23.17Z"/>
  <path d="M276.36,635.93H286.7v9.27H276.36ZM284.88,650h10.18v57.92H284.88Zm8.52-14.07h10.26v9.27H293.4Z"/>
  <path d="M314.93,699.48l6.12-7.28c5.55,4.8,11.09,7.53,18.29,7.53,6.29,0,10.26-2.9,10.26-7.28v-.17c0-4.14-2.32-6.37-13.08-8.85-12.32-3-19.28-6.62-19.28-17.3V666c0-9.93,8.28-16.8,19.78-16.8a32.16,32.16,0,0,1,21,7.28l-5.46,7.7c-5.21-3.89-10.43-6-15.72-6-6,0-9.44,3.06-9.44,6.87v.16c0,4.47,2.65,6.46,13.74,9.11,12.24,3,18.62,7.36,18.62,17v.16c0,10.84-8.53,17.3-20.69,17.3A35.66,35.66,0,0,1,314.93,699.48Z"/>
  <path d="M413.18,650h21.6c18.2,0,30.78,12.49,30.78,28.79V679c0,16.3-12.58,29-30.78,29h-21.6Zm21.6,48.65c12.16,0,20.11-8.19,20.11-19.52V679c0-11.34-7.95-19.69-20.11-19.69H423.36v39.38Z"/>
  <path d="M485.28,683.34V650h10.18v32.93c0,10.76,5.54,16.55,14.65,16.55s14.56-5.46,14.56-16.14V650h10.18v32.85c0,17.29-9.77,26-24.91,26S485.28,700.14,485.28,683.34Z"/>
  <path d="M554.57,679.13V679c0-16.47,12.33-30,29.87-30,10.67,0,17.13,3.72,22.67,9l-6.54,7.52c-4.63-4.3-9.59-7.19-16.21-7.19-11.09,0-19.12,9.1-19.12,20.43V679c0,11.34,8,20.6,19.12,20.6,7.11,0,11.67-2.89,16.63-7.53l6.54,6.62c-6,6.29-12.66,10.26-23.5,10.26C567.15,708.91,554.57,695.76,554.57,679.13Z"/>
  <path d="M622.28,679.13V679c0-16.3,12.58-30,30.37-30s30.2,13.48,30.2,29.78V679c0,16.3-12.58,29.95-30.37,29.95S622.28,695.43,622.28,679.13Zm49.9,0V679c0-11.25-8.19-20.6-19.7-20.6S633,667.54,633,678.79V679c0,11.25,8.2,20.6,19.7,20.6S672.18,690.38,672.18,679.13Z"/>
  <path d="M703.48,650h43.11v9.27H713.66v15.8h29.21v9.27H713.66v23.58H703.48Z"/>
  <path d="M766.06,650h43.11v9.27H776.24v15.8h29.21v9.27H776.24v23.58H766.06Z"/>
  <path d="M828.64,650h43v9.1H838.82v15.06h29v9.1h-29v15.56H872v9.1H828.64Z"/>
  <path d="M404.84,609a289.22,289.22,0,0,1-53.69,4.71H338.71l-5.92-14.46-3.91-9.49L212.62,302.08l-1.75-4.3L205,283.11,177,352.27l-99.78,247-1,2.56L14.87,751.16H0L177,315.94l20.46-50.59L177,214.62h68.36l.07.13,149.22,369,3.37,8.41Z"/>
  <path d="M595.65,367.07a272.07,272.07,0,0,1-15.47,90.56A238.69,238.69,0,0,1,534,536.55q-30.67,34.83-76.5,56.05A219.28,219.28,0,0,1,404.84,609a289.22,289.22,0,0,1-53.69,4.71H68.73V599.26H349a168.13,168.13,0,0,0,45.68-6c1.15-.34,2.29-.67,3.37-1.08a132.76,132.76,0,0,0,27.79-12c22.06-12.72,40.36-39,55-59.88a230,230,0,0,0,32.77-71.18,312,312,0,0,0,0-163.5,230,230,0,0,0-32.77-71.18,169.15,169.15,0,0,0-55-50.39q-33.1-19-76.84-19H245.46V383l-32.84-80.94-1.75-4.3L205,283.11,177,352.27V315.94l20.46-50.59L177,214.62v-94.2H351.15q61.26,0,107.45,21.13t76.5,56a235.86,235.86,0,0,1,45.41,78.92A276.42,276.42,0,0,1,595.65,367.07Z"/>
  <path d="M180,726.65h4.3v24.51H180Z"/>
  <path d="M208.29,726.65h4l13.12,16.94V726.65h4.24v24.51H226l-13.51-17.44v17.44h-4.24Z"/>
  <path d="M259.46,730.64h-7.77v-4h19.89v4H263.8v20.52h-4.34Z"/>
  <path d="M293.62,726.65h18.17v3.85H297.92v6.37h12.29v3.85H297.92v6.59h14v3.85H293.62Z"/>
  <path d="M334.56,726.65h10.93a9.88,9.88,0,0,1,7.07,2.45,7.43,7.43,0,0,1,2,5.29v.07c0,4-2.42,6.44-5.85,7.42l6.62,9.28h-5.08l-6-8.55h-5.39v8.55h-4.31Zm10.61,12.15c3.08,0,5-1.61,5-4.1v-.07c0-2.62-1.89-4.06-5.07-4.06h-6.27v8.23Z"/>
  <path d="M377.61,726.65h4.3v24.51h-4.3Z"/>
  <path d="M404.87,739v-.07a12.82,12.82,0,0,1,25.63-.07v.07a12.82,12.82,0,0,1-25.63.07ZM426,739v-.07a8.39,8.39,0,0,0-8.33-8.71c-4.87,0-8.26,3.88-8.26,8.64v.07c0,4.77,3.46,8.72,8.33,8.72S426,743.73,426,739Z"/>
  <path d="M453.2,726.65h10.92a9.89,9.89,0,0,1,7.08,2.45,7.42,7.42,0,0,1,2,5.29v.07c0,4-2.41,6.44-5.84,7.42l6.62,9.28h-5.08l-6-8.55h-5.39v8.55H453.2Zm10.61,12.15c3.08,0,5-1.61,5-4.1v-.07c0-2.62-1.89-4.06-5.08-4.06h-6.26v8.23Z"/>
  <path d="M524,726.65h9.14c7.7,0,13,5.29,13,12.18v.07c0,6.9-5.32,12.26-13,12.26H524Zm9.14,20.59c5.15,0,8.5-3.47,8.5-8.27v-.07c0-4.79-3.35-8.33-8.5-8.33h-4.83v16.67Z"/>
  <path d="M568.87,726.65H587v3.85H573.17v6.37h12.29v3.85H573.17v6.59h14v3.85H568.87Z"/>
  <path d="M608.17,747.58l2.59-3.08a11.28,11.28,0,0,0,7.74,3.19c2.66,0,4.34-1.22,4.34-3.08v-.07c0-1.75-1-2.7-5.54-3.75-5.21-1.26-8.15-2.8-8.15-7.31v-.07c0-4.2,3.5-7.11,8.36-7.11a13.59,13.59,0,0,1,8.9,3.08l-2.31,3.26a11.13,11.13,0,0,0-6.66-2.52c-2.52,0-4,1.29-4,2.9v.07c0,1.89,1.12,2.73,5.81,3.85,5.18,1.26,7.88,3.12,7.88,7.18v.07c0,4.58-3.6,7.32-8.75,7.32A15.09,15.09,0,0,1,608.17,747.58Z"/>
  <path d="M650,726.65h4.31v24.51H650Z"/>
  <path d="M677.21,739v-.07a12.48,12.48,0,0,1,12.64-12.67,13.22,13.22,0,0,1,9.42,3.33l-2.73,3.25a9.6,9.6,0,0,0-6.86-2.62c-4.52,0-7.95,3.95-7.95,8.64v.07c0,5.05,3.33,8.75,8.33,8.75A10,10,0,0,0,696,745.8v-4.58h-6.27v-3.75h10.44v10.29a15.64,15.64,0,0,1-10.23,3.82C682.25,751.58,677.21,746.11,677.21,739Z"/>
  <path d="M723.24,726.65h4l13.13,16.94V726.65h4.23v24.51H741l-13.52-17.44v17.44h-4.23Z"/>
</svg>
